<?xml version="1.0" encoding="UTF-8"?>
<svg version="1.1" viewBox="0 0 2048 797" width="303" height="118" xmlns="http://www.w3.org/2000/svg">
<path transform="translate(0)" d="m0 0h2048v797h-2048z" fill="#FEFEFE"/>
<path transform="translate(1667,175)" d="m0 0 13 1 13 5 12 8 10 10 11 16 8 16 6 14 4 13 5 17 4 29v28l-4 36-7 30-4 13v7l19 40 15 31 11 25 6 18 1 5v18l-5 16-4 8-7 9-8 7-11 5-9 2h-18l-10-3-10-6-8-8-8-14-3-13v-14l3-21 7-28 8-25 9-27 3-12 3-6v-10l-4-10-10-21-10-19-10-20-13-23-15-26-10-15-13-18-11-13-12-13-4-4-3 10-6 17-7 24-7 28-7 34-4 16 9 15 10 13 5 1 15-5 9-1h32l16 4 14 5 9 6 7 9 5 13v10l-4 10-11 12-8 4-17 1h-8l-9-3-14-7-13-10-11-10-7-8-11-14-3-2-8 6-8 4-7 6-3 8-4 25-4 28-7 51-4 27-5 15-9 14-8 7-11 6-9 3-8-1-11-6-6-8-4-9-2-11v-11l2-15 8-24 8-16 7-13 24-36 9-11 11-13 8-10 5-10 4-15 3-23-1-10-9-16-10-17-9-19-5-14-5-22-1-7v-17l6-22 7-14 8-8 10-5 9-2 13 1 13 3 12 6 8 6 2-4 7-9 7-8 13-10 14-7 6-2z" fill="#090909"/>
<path transform="translate(340,175)" d="m0 0 15 1 11 4 12 7 10 10 10 15 13 26 7 3 22 4 24 8 13 7 9 8 6 10 4 13v11l-4 11-7 9-8 6-7 2h-26l-11-6-8-8-7-12-5-13-10-38-1-3-8-2-27-4h-21l-21 3-26 4-21 7-1 3v31l3 13 6 15 8 14 7 9 4 5 14 11 13 8 16 9 3 1h7l13-5 20-6 28-8 30-5h24l21 5 16 7 10 9 6 7 6 15 1 7v13l-2 10-4 14 4 4 6 4 9 9 7 11 4 14v9l-4 15-7 12-12 10-14 7-30 10-28 4-9 5-14 12-12 11-16 12-16 8-9 3-12 2h-14l-20-3-15-8-16-10-13-13-7-10-6-9-17-5-13-4-20-7-12-5-11-6-10-8-7-7-7-12-3-9v-12l4-11 8-10 11-7 16-4 15 2 10 4 8 7 7 9 8 17 6 18 5 17 6 16 4 6 1 1 41 3 20 1h45l44-3 9-1 7-7 7-8 9-11 13-18 13-21 8-16 5-9v-2l-19-9-17-7-17-6-12-3-11-4-8-2-11-4-12-3-22-7-18-6-5-3-2-1h-12l-21 6-21 5-24 2h-26l-14-1-9-4-11-6-13-10-11-14-7-16-1-6v-11l4-16 5-13 9-14 11-12 7-7 17-12 15-9 8-5 10-26 6-11 8-11 9-10 10-7 13-6 7-2z" fill="#090909"/>
<path transform="translate(737,175)" d="m0 0h12l13 2 11 4 13 7 12 11 11 14 12 23 7 6 23 11 14 8 16 13 13 10 8 9 4 10 1 5v11l-3 11-6 9-8 7-9 4-8 1h-15l-7-3-10-8-7-10-4-15-5-22-3-16-8-24-3-6-7-3-16-3-9-3-16-2h-43l-16 2-13 4-16 4-5 5-7 20-6 28-5 40-3 30v13l21-3 38-3 22-3 13-1h33l13 4 10 5 4 4 1 3v14l-4 7-8 6-13 4-19 4-21 1-24-1-42-4-24-1 4 41 4 32 7 29 8 21 4 4 21 4 8 3 13 1h49l16-3 5-2 18-3 3-1 8-20 5-14 8-44 4-18 5-9 7-7 12-6 7-1h14l9 2 9 6 7 8 6 12 1 4v17l-8 16-8 10-11 12-8 7-10 8-14 9-21 11-8 4-9 10-7 11-9 10-9 8-16 9-24 6-12 1-26-7-15-8-10-9-7-7-11-15-7-9-17-8-22-14-15-13-13-13-8-11-6-13-4-12-1-7v-12l4-15 6-12 7-7 15-7 12-2h17v-9l-1-2-24-3-9-4-9-6-8-8-5-7-5-13-1-6v-17l2-12 5-12 9-14 11-12 12-12 17-13 16-9 12-6h2l2-5 12-21 11-14 10-10 15-9 10-4z" fill="#090909"/>
<path transform="translate(1211,175)" d="m0 0 12 1 12 6 8 8 8 16 3 12 1 7 1 33 1 129 2 34 5 44 3 7 21 12 21 8 8 1h21l13-3 21-9 10-7 2-3 6-41 1-12 1-36 1-162 2-10 8-15 7-8 10-7 10-4h18l10 4 6 4 8 9 7 14 1 8v21l-2 24-5 27-7 30-10 35-14 41-13 31-8 16-9 17-8 12-8 10-3 7-5 17-12 36-9 21-9 17-10 13-8 7-6 3-4 1h-15l-10-5-8-8-11-17-9-20-7-20-9-29-4-14-2-9-6-10-8-11-14-27-11-27-13-36-12-40-10-40-7-36-3-19-1-12 3-14 4-10 7-9 8-7 8-4z" fill="#090909"/>
<path transform="translate(978,176)" d="m0 0h20l12 4 10 6 7 7 6 12 3 12v10l-4 26-8 27-10 29v6l15 9 11 8 16 11 11 9 8 9 5 10 1 4v20l-4 12-7 12-11 12-13 13-11 9-15 12-14 11-6 5h-2l2 10 6 17 8 17 10 15 11 12 8 8v2l9-5 15-10 22-14 16-9 17-8 21-6 13-3h23l14 4 11 6 8 9 4 8 1 4v20l-3 10-7 11-8 7-25 12-19 5-20 4-20-1-23-6-22-8-18-11-6-4-5 1-26 14-15 7-15 4-10 3h-8l-13-5-10-6-7-9-4-8-3-13v-8l3-15 4-10 6-10 8-10 12-13 17-16v-15l-2-29v-23l3-35 5-25 8-31 1-9-7-6-16-10-12-9-12-11-7-7-8-15-4-15v-11l4-16 8-16 7-8 10-8 16-7z" fill="#090909"/>
<path transform="translate(1660,187)" d="m0 0h21l10 5 10 8 10 11 8 13 8 16 11 33 5 22 1 9v25l-2 18-6 30-7 24-2-1-13-28-15-29-13-23-10-18-16-25-7-10-12-16-12-15-9-11-2-3 1-6 7-9 11-10 16-8z" fill="#FEFEFE"/>
<path transform="translate(1436,187)" d="m0 0h9l9 3 7 6 6 10 1 4v31l-3 27-8 36-8 30-9 29-11 31-12 29-15 30-2 1v-9l3-25 1-20v-170l1-13 4-10 5-8 9-8 7-3z" fill="#FEFEFE"/>
<path transform="translate(1209,187)" d="m0 0h12l7 3 7 7 6 13 2 8 1 10 1 163 2 27 3 20v10l-4-4-11-24-12-31-13-38-8-28-12-48-7-37-1-8v-10l2-12 4-8 7-8 8-4z" fill="#FEFEFE"/>
<path transform="translate(261,263)" d="m0 0h3l1 21 3 14 5 17 6 13 6 11 9 11 9 9 12 9 15 9 10 5-3 2-22 7-30 6-9 1h-16l-14-4-9-2-15-9-11-11-8-13-2-8v-18l3-14 9-16 12-14 7-7 14-10z" fill="#FEFEFE"/>
<path transform="translate(1731,431)" d="m0 0 3 3 19 39 13 27 8 19 4 15v24l-2 9-7 12-7 7-14 7-4 1h-13l-14-7-9-9-6-12-2-11v-13l4-25 8-29 13-40 5-13z" fill="#FEFEFE"/>
<path transform="translate(1167,518)" d="m0 0 17 1 10 5 7 6 5 10v16l-4 10-6 8-7 6-16 8-18 6-6 1h-35l-13-2-11-4-13-5-23-13 2-4 24-16 19-12 16-9 13-5 17-5 6-1z" fill="#FEFEFE"/>
<path transform="translate(1008,324)" d="m0 0 5 2 11 8 14 9 16 11 7 6 6 9 2 5v18l-3 11-7 12-12 13-12 11-22 18-17 14-2-2-3-15-1-7v-42l4-32 9-36 4-12z" fill="#FEFEFE"/>
<path transform="translate(982,187)" d="m0 0h16l9 3 8 6 6 9 3 8v21l-5 24-12 36-5 10-3 1-11-7-17-12-13-12-8-9-5-9-3-9v-20l4-13 7-11 7-7 12-7z" fill="#FEFEFE"/>
<path transform="translate(1270,486)" d="m0 0 6 2 17 9 19 4 9 3h9l19-5 16-4 9-4h5l-2 9-12 36-9 21-11 20-11 12-8 5-7-1-10-9-6-7-8-14-9-20-9-27-4-15-3-9z" fill="#FEFEFE"/>
<path transform="translate(448,363)" d="m0 0h28l11 2 17 7 8 7 6 10 3 11v23l-2 11-1 2-10-3-13-5-20-8-33-10-17-5-14-5-10-2-12-5-10-3-6-3 1-3 10-5 25-8 23-6z" fill="#FEFEFE"/>
<path transform="translate(1562,208)" d="m0 0 10 1 20 8 10 7-1 6-11 30-8 28-7 29-4 17-4 14-3-1-13-24-8-16-8-24-2-13v-18l3-16 7-14 6-7 9-6z" fill="#FEFEFE"/>
<path transform="translate(1552,432)" d="m0 0h2l-4 19-4 33-3 19-3 28-5 29-3 10-6 10-5 6-8 6-9 3-8-1-6-5-3-5-2-11v-17l2-16 6-18 11-21 15-23 10-15 8-11 11-14z" fill="#FEFEFE"/>
<path transform="translate(983,493)" d="m0 0h3l6 12 7 16 7 13 12 16 9 10 7 8-4 4-16 9-19 9-11 4-5 1h-14l-10-5-8-9-4-10-2-8 1-11 4-13 6-10 10-13 11-12 7-7z" fill="#FEFEFE"/>
<path transform="translate(651,255)" d="m0 0h3l-1 9-5 21-4 21-5 50-2 27-2 2h-8l-12-3-14-7-7-8-6-12-1-4v-26l4-12 6-11 8-11 9-10 12-11 19-12z" fill="#FEFEFE"/>
<path transform="translate(608,418)" d="m0 0h28l2 6 4 37 3 27 5 23 2 9 4 10v5l-6-2-14-8-13-10-9-9-6-5-7-8-7-10-6-14-1-6v-19l3-10 6-9 8-6z" fill="#FEFEFE"/>
<path transform="translate(340,186)" d="m0 0 16 1 9 4 8 6 10 10 8 13 7 16-4 1h-62l-26 2-21 5h-5l1-8 5-13 11-16 6-7 9-6 10-5 9-2z" fill="#FEFEFE"/>
<path transform="translate(869,435)" d="m0 0h7l9 3 8 6 6 12v16l-3 8-10 14-11 12-14 12-17 11-17 9-3 2 2-5 2-3 5-19 3-10 4-28 4-23 5-8 6-5 8-3z" fill="#FEFEFE"/>
<path transform="translate(217,452)" d="m0 0h13l12 6 10 9 7 14 6 18 8 27 2 5-1 4-15-3-26-9-16-8-11-8-6-7-4-7-2-11 1-11 4-7 9-8z" fill="#FEFEFE"/>
<path transform="translate(734,186)" d="m0 0h17l15 3 13 7 10 9 9 12 10 15v3l-9-3-42-6h-30l-40 6-11 4-2-1 8-13 10-14 6-7 10-7 11-5z" fill="#FEFEFE"/>
<path transform="translate(298,551)" d="m0 0 37 1 100 1-2 4-11 11-17 12-14 8-18 6h-15l-19-6-11-6-12-9-8-7-10-13z" fill="#FEFEFE"/>
<path transform="translate(729,384)" d="m0 0h58l5 3 1 2v11l-5 6-12 5-6 1h-75l-22-2-23-3-2-2v-12l1-1 40-4 23-3z" fill="#FEFEFE"/>
<path transform="translate(1616,397)" d="m0 0h45l11 2 13 7 6 5 5 8 1 3v11l-4 7-8 7-8 4-9 1-13-5-4-1-11-6-13-11-8-8-7-8-10-11v-3l3-1z" fill="#FEFEFE"/>
<path transform="translate(413,249)" d="m0 0 10 2 24 6 15 6 9 6 5 5 6 7 4 10v12l-4 7-5 6-9 6-7 2-9-1-11-6-8-7-8-16-6-21-4-16z" fill="#FEFEFE"/>
<path transform="translate(829,254)" d="m0 0 5 1 20 11 13 9 14 12 5 4 8 11 2 7v8l-3 10-6 8-10 5-10 2-10-3-6-4-6-7-7-28-3-19-6-22z" fill="#FEFEFE"/>
<path transform="translate(522,452)" d="m0 0 4 1 8 7 8 11 5 11v13l-7 14-8 8-14 8-19 7-25 5-8 2 2-4 12-13 11-15 11-16 10-17 6-12 3-9z" fill="#FEFEFE"/>
<path transform="translate(801,556)" d="m0 0 4 1-4 1-2 5-6 8-10 10-11 7-11 5-8 2h-23l-13-4-16-8-12-12-8-11 4-2 21 2 24 4h21l28-4 19-2z" fill="#FEFEFE"/>
<path transform="translate(1573,381)" d="m0 0 6 4 6 9-1 3-11 7-5 2v-8l4-16z" fill="#FEFEFE"/>
</svg>
